<?xml version="1.0" encoding="UTF-8" standalone="no"?>
<!DOCTYPE svg PUBLIC "-//W3C//DTD SVG 1.1//EN"
"http://www.w3.org/Graphics/SVG/1.1/DTD/svg11.dtd">


<!-- Page 1 -->
<svg x="0" y="0" width="1465" height="825" viewBox="0 0 1465 825" version="1.1" xmlns="http://www.w3.org/2000/svg" xmlns:xlink="http://www.w3.org/1999/xlink"
style="display: block;margin-left: auto;margin-right: auto;">
<defs>
<clipPath id="c_1"><path d="M0,0H1465V825H0Z"/></clipPath>
<style type="text/css"><![CDATA[
text { white-space: pre; }
path, image { pointer-events: none; }

.s1{
font-size: 19.86px;
font-family: Metropolis-SemiBold_8;
fill: #717074;
}
.s2{
font-size: 19.86px;
font-family: Metropolis-SemiBold_8;
fill: #60981A;
}
.s3{
font-size: 19.86px;
font-family: Metropolis-SemiBold_8;
fill: #FF9300;
}
.s4{
font-size: 18.33px;
font-family: Metropolis-SemiBold_8;
fill: #717074;
}
.s5{
font-size: 22.92px;
font-family: Metropolis-Regular_9;
fill: #717074;
}
.s6{
font-size: 19.86px;
font-family: Metropolis-Regular_9;
fill: #717074;
}
.s7{
font-size: 18.33px;
font-family: Metropolis-Regular_9;
fill: #717074;
}
.s8{
font-size: 9.17px;
font-family: Helvetica_a;
fill: #717074;
}
.s9{
font-size: 12.22px;
font-family: Metropolis-Light_b;
fill: #717074;
}
.sa{
font-size: 15.28px;
font-family: Metropolis-Regular_9;
fill: #535353;
}
.sb{
font-size: 15.28px;
font-family: Metropolis-SemiBold_8;
fill: #FF9300;
}
.sc{
font-size: 19.86px;
font-family: Metropolis-SemiBold_8;
fill: #00C1D5;
}
.sd{
font-size: 15.28px;
font-family: Metropolis-SemiBold_8;
fill: #00C1D5;
}
.se{
font-size: 15.28px;
font-family: Metropolis-SemiBold_8;
fill: #717074;
}

.g0{
fill: #FFFFFF;
}
.g1{
fill: none;
stroke: #000000;
stroke-width: 3.055;
stroke-linecap: butt;
stroke-linejoin: round;
stroke-miterlimit: 4;
}
.g2{
fill: none;
stroke: #BBDF90;
stroke-width: 4.583;
stroke-linecap: round;
stroke-linejoin: round;
stroke-miterlimit: 4;
stroke-dasharray: 0,14;
}
.g3{
fill: none;
stroke: #FF9300;
stroke-width: 3.055;
stroke-linecap: butt;
stroke-linejoin: miter;
stroke-miterlimit: 4;
stroke-dasharray: 4,4;
}
.g4{
fill: none;
stroke: #0091DA;
stroke-width: 3.055;
stroke-linecap: butt;
stroke-linejoin: round;
stroke-miterlimit: 4;
}
.g5{
fill: #0091DA;
}
.g6{
fill: none;
stroke: #0091DA;
stroke-width: 0.152;
stroke-linecap: butt;
stroke-linejoin: round;
stroke-miterlimit: 4;
}
.g7{
fill: none;
stroke: #80C8ED;
stroke-width: 1.909;
stroke-linecap: butt;
stroke-linejoin: miter;
stroke-miterlimit: 4;
}
.g8{
fill: none;
stroke: #A7A7A7;
stroke-width: 1.456;
stroke-linecap: butt;
stroke-linejoin: round;
stroke-miterlimit: 4;
}
.g9{
fill: #A7A7A7;
}
.ga{
fill: none;
stroke: #00C1D5;
stroke-width: 3.055;
stroke-linecap: butt;
stroke-linejoin: miter;
stroke-miterlimit: 4;
stroke-dasharray: 4,4;
}

]]></style>

</defs>
<g clip-path="url(#c_1)">
<path d="M0,0
L0,825
L1465,825
L1465,0 Z " 
fill="#FFFFFF" stroke="none"/>
<path d="M0,0H1465.1V825H0Z" class="g0"/>
<path d="M65.8,756.6H1399.3V90.4H65.8V756.6Z" class="g0"/>
<path d="M65.8,90.4H1399.3V756.6H65.8V90.4Z" class="g1"/>
<text x="698" y="745" class="s1">Cluster</text>
<path d="M92.7,119.8H1372.4V727.2H92.7V119.8Z" class="g0"/>
<path d="M92.7,119.8H1372.4V727.2H92.7V119.8Z" class="g2"/>
<text x="606" y="715" class="s2">Namespace (smartsearch)</text>
<path d="M155.3,678.9H705.7V246.7H155.3V678.9Z" class="g0"/>
<path d="M155.3,246.7H705.7V678.9H155.3V246.7Z" class="g3"/>
<text x="375" y="667" class="s3">Production</text>
<path d="M177.4,616h139V433.7h-139V616Z" class="g0"/>
<path d="M177.4,433.7h139V616h-139V433.7Z" class="g4"/>
<text x="192" y="458" class="s4">Deployment</text>
<path d="M207.1,566.3h66.4V510.5H207.1v55.8Z" class="g0"/>
<path d="M207.1,510.5h66.4v55.8H207.1V510.5Z" class="g4"/>
<path d="M213.7,571.9h66.4V516.1H213.7v55.8Z" class="g0"/>
<path d="M213.7,516.1h66.4v55.8H213.7V516.1Z" class="g4"/>
<path d="M220.4,577.4h66.4V521.6H220.4v55.8Z" class="g0"/>
<path d="M220.4,521.6h66.4v55.8H220.4V521.6Z" class="g4"/>
<text x="226" y="559" class="s5">Pods</text>
<path d="M509.1,344.8h139v-64h-139v64Z" class="g0"/>
<path d="M509.1,280.8h139v64h-139v-64Z" class="g4"/>
<text x="543" y="308" class="s6">Service </text>
<text x="563" y="333" class="s6">DB</text>
<path d="M346.1,616h139V433.7h-139V616Z" class="g0"/>
<path d="M346.1,433.7h139V616h-139V433.7Z" class="g4"/>
<text x="360" y="458" class="s4">Deployment</text>
<path d="M375.8,566.3h66.4V510.5H375.8v55.8Z" class="g0"/>
<path d="M375.8,510.5h66.4v55.8H375.8V510.5Z" class="g4"/>
<path d="M382.4,571.9h66.4V516.1H382.4v55.8Z" class="g0"/>
<path d="M382.4,516.1h66.4v55.8H382.4V516.1Z" class="g4"/>
<path d="M389,577.4h66.4V521.6H389v55.8Z" class="g0"/>
<path d="M389,521.6h66.4v55.8H389V521.6Z" class="g4"/>
<text x="394" y="559" class="s5">Pods</text>
<path d="M514.8,616h139V433.7h-139V616Z" class="g0"/>
<path d="M514.8,433.7h139V616h-139V433.7Z" class="g4"/>
<text x="528" y="458" class="s4">Deployment</text>
<path d="M544.4,566.3h66.4V510.5H544.4v55.8Z" class="g0"/>
<path d="M544.4,510.5h66.4v55.8H544.4V510.5Z" class="g4"/>
<path d="M551.1,571.9h66.4V516.1H551.1v55.8Z" class="g0"/>
<path d="M551.1,516.1h66.4v55.8H551.1V516.1Z" class="g4"/>
<path d="M557.7,577.4h66.4V521.6H557.7v55.8Z" class="g0"/>
<path d="M557.7,521.6h66.4v55.8H557.7V521.6Z" class="g4"/>
<text x="563" y="559" class="s5">Pods</text>
<path d="M241.3,353.4v63.2" class="g4"/>
<path d="M246.5,417.1l-5.2,10.5L236,417.1Z" class="g5"/>
<path d="M409.9,353.4v63.2" class="g6"/>
<path d="M415.2,417.1l-5.3,10.5l-5.2,-10.5Z" class="g5"/>
<path d="M579.4,353.4v63.2" class="g6"/>
<path d="M584.6,417.1l-5.2,10.5l-5.3,-10.5Z" class="g5"/>
<path d="M241.3,207.8v38.5" class="g4"/>
<path d="M246.5,246.8l-5.2,10.5L236,246.8Z" class="g5"/>
<path d="M409.9,207.8v38.5" class="g4"/>
<path d="M415.2,246.8l-5.3,10.5l-5.2,-10.5Z" class="g5"/>
<text x="201" y="601" class="s7">web:latest</text>
<text x="374" y="601" class="s7">api:latest</text>
<text x="527" y="601" class="s7">mongo:latest</text>
<path d="M279,607.9h39.2c3.6,0,6.7,0,9.5,.7c4.6,1.3,8.2,4.9,9.5,9.6c.7,2.8,.7,5.8,.7,9.4c0,3.6,0,6.7,-.7,9.5c-1.3,4.6,-4.9,8.2,-9.5,9.5c-2.8,.7,-5.9,.7,-9.5,.7H279c-3.6,0,-6.6,0,-9.4,-.7c-4.7,-1.3,-8.3,-4.9,-9.6,-9.5c-.7,-2.8,-.7,-5.9,-.7,-9.5c0,-3.6,0,-6.6,.7,-9.4c1.3,-4.7,4.9,-8.3,9.6,-9.6c2.8,-.7,5.8,-.7,9.4,-.7Z" class="g0"/>
<path d="M279,607.9h39.2c3.6,0,6.7,0,9.5,.7c4.6,1.3,8.2,4.9,9.5,9.6c.7,2.8,.7,5.8,.7,9.4c0,3.6,0,6.7,-.7,9.5c-1.3,4.6,-4.9,8.2,-9.5,9.5c-2.8,.7,-5.9,.7,-9.5,.7H279c-3.6,0,-6.6,0,-9.4,-.7c-4.7,-1.3,-8.3,-4.9,-9.6,-9.5c-.7,-2.8,-.7,-5.9,-.7,-9.5c0,-3.6,0,-6.6,.7,-9.4c1.3,-4.7,4.9,-8.3,9.6,-9.6c2.8,-.7,5.8,-.7,9.4,-.7Z" class="g7"/>
<text x="275" y="624" class="s8">stage: prod</text>
<text x="273" y="635" class="s8">tier: frontend</text>
<text x="1430" y="795" class="s9">1</text>
<path d="M451.1,607.9h39.2c3.6,0,6.7,0,9.5,.7c4.6,1.3,8.2,4.9,9.5,9.6c.7,2.8,.7,5.8,.7,9.4c0,3.6,0,6.7,-.7,9.5c-1.3,4.6,-4.9,8.2,-9.5,9.5c-2.8,.7,-5.9,.7,-9.5,.7H451.1c-3.5,0,-6.6,0,-9.4,-.7c-4.6,-1.3,-8.3,-4.9,-9.5,-9.5c-.7,-2.8,-.7,-5.9,-.7,-9.5c0,-3.6,0,-6.6,.7,-9.4c1.2,-4.7,4.9,-8.3,9.5,-9.6c2.8,-.7,5.9,-.7,9.4,-.7Z" class="g0"/>
<path d="M451.1,607.9h39.2c3.6,0,6.7,0,9.5,.7c4.6,1.3,8.2,4.9,9.5,9.6c.7,2.8,.7,5.8,.7,9.4c0,3.6,0,6.7,-.7,9.5c-1.3,4.6,-4.9,8.2,-9.5,9.5c-2.8,.7,-5.9,.7,-9.5,.7H451.1c-3.5,0,-6.6,0,-9.4,-.7c-4.6,-1.3,-8.3,-4.9,-9.5,-9.5c-.7,-2.8,-.7,-5.9,-.7,-9.5c0,-3.6,0,-6.6,.7,-9.4c1.2,-4.7,4.9,-8.3,9.5,-9.6c2.8,-.7,5.9,-.7,9.4,-.7Z" class="g7"/>
<text x="447" y="624" class="s8">stage: prod</text>
<text x="444" y="635" class="s8">tier: backend</text>
<path d="M434.9,417.4l.7,-1.3L505.9,286.4l.7,-1.4" class="g8"/>
<path d="M512.3,289.9l.6,-16.4l-13.5,9.4Z" class="g9"/>
<path d="M429.1,412.6l-.5,16.4L442,419.6Z" class="g9"/>
<path d="M262.7,414.7l.7,-1.3L333.8,283.7l.7,-1.4" class="g8"/>
<path d="M340.2,287.2l.6,-16.4l-13.5,9.4Z" class="g9"/>
<path d="M257,409.9l-.5,16.4l13.4,-9.4Z" class="g9"/>
<path d="M633.6,607.9h39.2c3.5,0,6.6,0,9.4,.7c4.7,1.3,8.3,4.9,9.5,9.6c.7,2.8,.7,5.8,.7,9.4c0,3.6,0,6.7,-.7,9.5c-1.2,4.6,-4.8,8.2,-9.5,9.5c-2.8,.7,-5.9,.7,-9.4,.7H633.6c-3.6,0,-6.7,0,-9.5,-.7c-4.6,-1.3,-8.2,-4.9,-9.5,-9.5c-.7,-2.8,-.7,-5.9,-.7,-9.5c0,-3.6,0,-6.6,.7,-9.4c1.3,-4.7,4.9,-8.3,9.5,-9.6c2.8,-.7,5.9,-.7,9.5,-.7Z" class="g0"/>
<path d="M633.6,607.9h39.2c3.5,0,6.6,0,9.4,.7c4.7,1.3,8.3,4.9,9.5,9.6c.7,2.8,.7,5.8,.7,9.4c0,3.6,0,6.7,-.7,9.5c-1.2,4.6,-4.8,8.2,-9.5,9.5c-2.8,.7,-5.9,.7,-9.4,.7H633.6c-3.6,0,-6.7,0,-9.5,-.7c-4.6,-1.3,-8.2,-4.9,-9.5,-9.5c-.7,-2.8,-.7,-5.9,-.7,-9.5c0,-3.6,0,-6.6,.7,-9.4c1.3,-4.7,4.9,-8.3,9.5,-9.6c2.8,-.7,5.9,-.7,9.5,-.7Z" class="g7"/>
<text x="630" y="624" class="s8">stage: prod</text>
<text x="624" y="635" class="s8">tier: database</text>
<path d="M506.9,331.6h39.2c3.6,0,6.6,0,9.4,.7c4.7,1.2,8.3,4.8,9.5,9.5c.8,2.8,.8,5.9,.8,9.4c0,3.6,0,6.7,-.8,9.5c-1.2,4.6,-4.8,8.2,-9.5,9.5c-2.8,.7,-5.8,.7,-9.4,.7H506.9c-3.6,0,-6.7,0,-9.5,-.7c-4.6,-1.3,-8.2,-4.9,-9.5,-9.5c-.7,-2.8,-.7,-5.9,-.7,-9.5c0,-3.5,0,-6.6,.7,-9.4c1.3,-4.7,4.9,-8.3,9.5,-9.5c2.8,-.7,5.9,-.7,9.5,-.7Z" class="g0"/>
<path d="M506.9,331.6h39.2c3.6,0,6.6,0,9.4,.7c4.7,1.2,8.3,4.8,9.5,9.5c.8,2.8,.8,5.9,.8,9.4c0,3.6,0,6.7,-.8,9.5c-1.2,4.6,-4.8,8.2,-9.5,9.5c-2.8,.7,-5.8,.7,-9.4,.7H506.9c-3.6,0,-6.7,0,-9.5,-.7c-4.6,-1.3,-8.2,-4.9,-9.5,-9.5c-.7,-2.8,-.7,-5.9,-.7,-9.5c0,-3.5,0,-6.6,.7,-9.4c1.3,-4.7,4.9,-8.3,9.5,-9.5c2.8,-.7,5.9,-.7,9.5,-.7Z" class="g7"/>
<text x="504" y="348" class="s8">stage: prod</text>
<text x="498" y="359" class="s8">tier: database</text>
<text x="177" y="270" class="sa">smartsearch-web</text>
<text x="346" y="270" class="sa">smartsearch-api</text>
<text x="520" y="270" class="sa">smartsearch-db</text>
<path d="M171.8,344.8h139v-64h-139v64Z" class="g0"/>
<path d="M171.8,280.8h139v64h-139v-64Z" class="g4"/>
<text x="206" y="308" class="s6">Service </text>
<text x="221" y="333" class="s6">web</text>
<path d="M340.4,345.1h139V280.5h-139v64.6Z" class="g0"/>
<path d="M340.4,280.5h139v64.6h-139V280.5Z" class="g4"/>
<text x="375" y="308" class="s6">Service </text>
<text x="392" y="333" class="s6">API</text>
<path d="M159.7,333h39.2c3.6,0,6.6,0,9.4,.7c4.7,1.3,8.3,4.9,9.5,9.5c.8,2.8,.8,5.9,.8,9.5c0,3.5,0,6.6,-.8,9.4c-1.2,4.6,-4.8,8.3,-9.5,9.5c-2.8,.7,-5.8,.7,-9.4,.7H159.7c-3.6,0,-6.7,0,-9.5,-.7c-4.6,-1.2,-8.2,-4.9,-9.5,-9.5c-.7,-2.8,-.7,-5.9,-.7,-9.4c0,-3.6,0,-6.7,.7,-9.5c1.3,-4.6,4.9,-8.2,9.5,-9.5c2.8,-.7,5.9,-.7,9.5,-.7Z" class="g0"/>
<path d="M159.7,333h39.2c3.6,0,6.6,0,9.4,.7c4.7,1.3,8.3,4.9,9.5,9.5c.8,2.8,.8,5.9,.8,9.5c0,3.5,0,6.6,-.8,9.4c-1.2,4.6,-4.8,8.3,-9.5,9.5c-2.8,.7,-5.8,.7,-9.4,.7H159.7c-3.6,0,-6.7,0,-9.5,-.7c-4.6,-1.2,-8.2,-4.9,-9.5,-9.5c-.7,-2.8,-.7,-5.9,-.7,-9.4c0,-3.6,0,-6.7,.7,-9.5c1.3,-4.6,4.9,-8.2,9.5,-9.5c2.8,-.7,5.9,-.7,9.5,-.7Z" class="g7"/>
<text x="155" y="349" class="s8">stage: prod</text>
<text x="154" y="360" class="s8">tier: frontend</text>
<path d="M346.8,331.6H386c3.6,0,6.6,0,9.4,.7c4.7,1.2,8.3,4.8,9.6,9.5c.7,2.8,.7,5.9,.7,9.4c0,3.6,0,6.7,-.7,9.5c-1.3,4.6,-4.9,8.2,-9.6,9.5c-2.8,.7,-5.8,.7,-9.4,.7H346.8c-3.6,0,-6.7,0,-9.5,-.7c-4.6,-1.3,-8.2,-4.9,-9.5,-9.5c-.7,-2.8,-.7,-5.9,-.7,-9.5c0,-3.5,0,-6.6,.7,-9.4c1.3,-4.7,4.9,-8.3,9.5,-9.5c2.8,-.7,5.9,-.7,9.5,-.7Z" class="g0"/>
<path d="M346.8,331.6H386c3.6,0,6.6,0,9.4,.7c4.7,1.2,8.3,4.8,9.6,9.5c.7,2.8,.7,5.9,.7,9.4c0,3.6,0,6.7,-.7,9.5c-1.3,4.6,-4.9,8.2,-9.6,9.5c-2.8,.7,-5.8,.7,-9.4,.7H346.8c-3.6,0,-6.7,0,-9.5,-.7c-4.6,-1.3,-8.2,-4.9,-9.5,-9.5c-.7,-2.8,-.7,-5.9,-.7,-9.5c0,-3.5,0,-6.6,.7,-9.4c1.3,-4.7,4.9,-8.3,9.5,-9.5c2.8,-.7,5.9,-.7,9.5,-.7Z" class="g7"/>
<text x="343" y="348" class="s8">stage: prod</text>
<text x="340" y="359" class="s8">tier: backend</text>
<path d="M155.3,195.6H1326.1V146.1H155.3v49.5Z" class="g0"/>
<path d="M155.3,146.1H1326.1v49.5H155.3V146.1Z" class="g4"/>
<text x="705" y="174" class="s1">Ingress</text>
<text x="190" y="183" class="sb">hostname/app</text>
<text x="363" y="183" class="sb">hostname/api</text>
<path d="M732.2,67.9H714.3L740.7,133L767,67.9H749.1V31.3H732.2Z" class="g0"/>
<path d="M732.2,67.9H714.3L740.7,133L767,67.9H749.1V31.3H732.2Z" class="g4"/>
<path d="M768.4,679.7h550.4V247.5H768.4V679.7Z" class="g0"/>
<path d="M768.4,247.5h550.4V679.7H768.4V247.5Z" class="ga"/>
<text x="977" y="669" class="sc">Development</text>
<path d="M790.5,616.7h139V434.5h-139V616.7Z" class="g0"/>
<path d="M790.5,434.5h139V616.7h-139V434.5Z" class="g4"/>
<text x="805" y="459" class="s4">Deployment</text>
<path d="M820.2,567h66.4V511.2H820.2V567Z" class="g0"/>
<path d="M820.2,511.2h66.4V567H820.2V511.2Z" class="g4"/>
<path d="M826.8,572.6h66.4V516.8H826.8v55.8Z" class="g0"/>
<path d="M826.8,516.8h66.4v55.8H826.8V516.8Z" class="g4"/>
<path d="M833.5,578.2h66.4V522.4H833.5v55.8Z" class="g0"/>
<path d="M833.5,522.4h66.4v55.8H833.5V522.4Z" class="g4"/>
<text x="838" y="559" class="s5">Pods</text>
<path d="M1122.2,345.5h139V281.6h-139v63.9Z" class="g0"/>
<path d="M1122.2,281.6h139v63.9h-139V281.6Z" class="g4"/>
<text x="1156" y="308" class="s6">Service </text>
<text x="1176" y="333" class="s6">DB</text>
<path d="M959.2,616.7h139V434.5h-139V616.7Z" class="g0"/>
<path d="M959.2,434.5h139V616.7h-139V434.5Z" class="g4"/>
<text x="973" y="459" class="s4">Deployment</text>
<path d="M988.9,567h66.4V511.2H988.9V567Z" class="g0"/>
<path d="M988.9,511.2h66.4V567H988.9V511.2Z" class="g4"/>
<path d="M995.5,572.6h66.4V516.8H995.5v55.8Z" class="g0"/>
<path d="M995.5,516.8h66.4v55.8H995.5V516.8Z" class="g4"/>
<path d="M1002.1,578.2h66.4V522.4h-66.4v55.8Z" class="g0"/>
<path d="M1002.1,522.4h66.4v55.8h-66.4V522.4Z" class="g4"/>
<text x="1008" y="559" class="s5">Pods</text>
<path d="M1127.9,616.7h139V434.5h-139V616.7Z" class="g0"/>
<path d="M1127.9,434.5h139V616.7h-139V434.5Z" class="g4"/>
<text x="1142" y="459" class="s4">Deployment</text>
<path d="M1157.5,567h66.4V511.2h-66.4V567Z" class="g0"/>
<path d="M1157.5,511.2h66.4V567h-66.4V511.2Z" class="g4"/>
<path d="M1164.2,572.6h66.4V516.8h-66.4v55.8Z" class="g0"/>
<path d="M1164.2,516.8h66.4v55.8h-66.4V516.8Z" class="g4"/>
<path d="M1170.8,578.2h66.4V522.4h-66.4v55.8Z" class="g0"/>
<path d="M1170.8,522.4h66.4v55.8h-66.4V522.4Z" class="g4"/>
<text x="1176" y="559" class="s5">Pods</text>
<path d="M854.4,354.2v63.1" class="g4"/>
<path d="M859.6,417.8l-5.2,10.5l-5.3,-10.5Z" class="g5"/>
<path d="M1023,354.2v63.1" class="g6"/>
<path d="M1028.3,417.8l-5.3,10.5l-5.2,-10.5Z" class="g5"/>
<path d="M1192.5,354.2v63.1" class="g6"/>
<path d="M1197.7,417.8l-5.2,10.5l-5.3,-10.5Z" class="g5"/>
<path d="M854.4,208.5v38.6" class="g4"/>
<path d="M859.6,247.6l-5.2,10.5l-5.3,-10.5Z" class="g5"/>
<path d="M1023,208.5v38.6" class="g4"/>
<path d="M1028.3,247.6l-5.3,10.5l-5.2,-10.5Z" class="g5"/>
<text x="823" y="601" class="s7">web:dev</text>
<text x="994" y="601" class="s7">api:dev</text>
<text x="1139" y="601" class="s7">mongo:latest</text>
<path d="M892.1,608.7h39.2c3.6,0,6.6,0,9.4,.7c4.7,1.3,8.3,4.9,9.6,9.5c.7,2.8,.7,5.9,.7,9.5c0,3.5,0,6.6,-.7,9.4c-1.3,4.6,-4.9,8.3,-9.6,9.5c-2.8,.7,-5.8,.7,-9.4,.7H892.1c-3.6,0,-6.6,0,-9.4,-.7c-4.7,-1.2,-8.3,-4.9,-9.6,-9.5c-.7,-2.8,-.7,-5.9,-.7,-9.4c0,-3.6,0,-6.7,.7,-9.5c1.3,-4.6,4.9,-8.2,9.6,-9.5c2.8,-.7,5.8,-.7,9.4,-.7Z" class="g0"/>
<path d="M892.1,608.7h39.2c3.6,0,6.6,0,9.4,.7c4.7,1.3,8.3,4.9,9.6,9.5c.7,2.8,.7,5.9,.7,9.5c0,3.5,0,6.6,-.7,9.4c-1.3,4.6,-4.9,8.3,-9.6,9.5c-2.8,.7,-5.8,.7,-9.4,.7H892.1c-3.6,0,-6.6,0,-9.4,-.7c-4.7,-1.2,-8.3,-4.9,-9.6,-9.5c-.7,-2.8,-.7,-5.9,-.7,-9.4c0,-3.6,0,-6.7,.7,-9.5c1.3,-4.6,4.9,-8.2,9.6,-9.5c2.8,-.7,5.8,-.7,9.4,-.7Z" class="g7"/>
<text x="890" y="624" class="s8">stage: dev</text>
<text x="886" y="635" class="s8">tier: frontend</text>
<path d="M1064.2,608.7h39.2c3.6,0,6.7,0,9.5,.7c4.6,1.3,8.2,4.9,9.5,9.5c.7,2.8,.7,5.9,.7,9.5c0,3.5,0,6.6,-.7,9.4c-1.3,4.6,-4.9,8.3,-9.5,9.5c-2.8,.7,-5.9,.7,-9.5,.7h-39.2c-3.5,0,-6.6,0,-9.4,-.7c-4.6,-1.2,-8.3,-4.9,-9.5,-9.5c-.7,-2.8,-.7,-5.9,-.7,-9.4c0,-3.6,0,-6.7,.7,-9.5c1.2,-4.6,4.9,-8.2,9.5,-9.5c2.8,-.7,5.9,-.7,9.4,-.7Z" class="g0"/>
<path d="M1064.2,608.7h39.2c3.6,0,6.7,0,9.5,.7c4.6,1.3,8.2,4.9,9.5,9.5c.7,2.8,.7,5.9,.7,9.5c0,3.5,0,6.6,-.7,9.4c-1.3,4.6,-4.9,8.3,-9.5,9.5c-2.8,.7,-5.9,.7,-9.5,.7h-39.2c-3.5,0,-6.6,0,-9.4,-.7c-4.6,-1.2,-8.3,-4.9,-9.5,-9.5c-.7,-2.8,-.7,-5.9,-.7,-9.4c0,-3.6,0,-6.7,.7,-9.5c1.2,-4.6,4.9,-8.2,9.5,-9.5c2.8,-.7,5.9,-.7,9.4,-.7Z" class="g7"/>
<text x="1063" y="624" class="s8">stage: dev</text>
<text x="1057" y="635" class="s8">tier: backend</text>
<path d="M1047.9,418.2l.8,-1.4L1119,287.1l.7,-1.3" class="g8"/>
<path d="M1125.4,290.6l.6,-16.4l-13.5,9.4Z" class="g9"/>
<path d="M1042.2,413.3l-.5,16.4l13.4,-9.4Z" class="g9"/>
<path d="M875.8,415.5l.7,-1.4L946.9,284.4l.7,-1.3" class="g8"/>
<path d="M953.3,287.9l.5,-16.4l-13.4,9.4Z" class="g9"/>
<path d="M870.1,410.6l-.5,16.4L883,417.6Z" class="g9"/>
<path d="M1246.7,608.7h39.2c3.5,0,6.6,0,9.4,.7c4.6,1.3,8.3,4.9,9.5,9.5c.7,2.8,.7,5.9,.7,9.5c0,3.5,0,6.6,-.7,9.4c-1.2,4.6,-4.9,8.3,-9.5,9.5c-2.8,.7,-5.9,.7,-9.4,.7h-39.2c-3.6,0,-6.7,0,-9.5,-.7c-4.6,-1.2,-8.2,-4.9,-9.5,-9.5c-.7,-2.8,-.7,-5.9,-.7,-9.4c0,-3.6,0,-6.7,.7,-9.5c1.3,-4.6,4.9,-8.2,9.5,-9.5c2.8,-.7,5.9,-.7,9.5,-.7Z" class="g0"/>
<path d="M1246.7,608.7h39.2c3.5,0,6.6,0,9.4,.7c4.6,1.3,8.3,4.9,9.5,9.5c.7,2.8,.7,5.9,.7,9.5c0,3.5,0,6.6,-.7,9.4c-1.2,4.6,-4.9,8.3,-9.5,9.5c-2.8,.7,-5.9,.7,-9.4,.7h-39.2c-3.6,0,-6.7,0,-9.5,-.7c-4.6,-1.2,-8.2,-4.9,-9.5,-9.5c-.7,-2.8,-.7,-5.9,-.7,-9.4c0,-3.6,0,-6.7,.7,-9.5c1.3,-4.6,4.9,-8.2,9.5,-9.5c2.8,-.7,5.9,-.7,9.5,-.7Z" class="g7"/>
<text x="1245" y="624" class="s8">stage: dev</text>
<text x="1239" y="635" class="s8">tier: database</text>
<path d="M1120,332.3h39.2c3.5,0,6.6,0,9.4,.7c4.6,1.3,8.3,4.9,9.5,9.5c.7,2.8,.7,5.9,.7,9.5c0,3.5,0,6.6,-.7,9.4c-1.2,4.6,-4.9,8.3,-9.5,9.5c-2.8,.7,-5.9,.7,-9.4,.7H1120c-3.6,0,-6.7,0,-9.5,-.7c-4.6,-1.2,-8.2,-4.9,-9.5,-9.5c-.7,-2.8,-.7,-5.9,-.7,-9.4c0,-3.6,0,-6.7,.7,-9.5c1.3,-4.6,4.9,-8.2,9.5,-9.5c2.8,-.7,5.9,-.7,9.5,-.7Z" class="g0"/>
<path d="M1120,332.3h39.2c3.5,0,6.6,0,9.4,.7c4.6,1.3,8.3,4.9,9.5,9.5c.7,2.8,.7,5.9,.7,9.5c0,3.5,0,6.6,-.7,9.4c-1.2,4.6,-4.9,8.3,-9.5,9.5c-2.8,.7,-5.9,.7,-9.4,.7H1120c-3.6,0,-6.7,0,-9.5,-.7c-4.6,-1.2,-8.2,-4.9,-9.5,-9.5c-.7,-2.8,-.7,-5.9,-.7,-9.4c0,-3.6,0,-6.7,.7,-9.5c1.3,-4.6,4.9,-8.2,9.5,-9.5c2.8,-.7,5.9,-.7,9.5,-.7Z" class="g7"/>
<text x="1118" y="348" class="s8">stage: dev</text>
<text x="1112" y="359" class="s8">tier: database</text>
<text x="774" y="268" class="sa">dev-smartsearch-web</text>
<text x="947" y="268" class="sa">dev-smartsearch-api</text>
<text x="1116" y="268" class="sa">dev-smartsearch-db</text>
<path d="M784.9,345.5h139V281.6h-139v63.9Z" class="g0"/>
<path d="M784.9,281.6h139v63.9h-139V281.6Z" class="g4"/>
<text x="820" y="308" class="s6">Service </text>
<text x="834" y="333" class="s6">web</text>
<path d="M953.5,345.8h139V281.3h-139v64.5Z" class="g0"/>
<path d="M953.5,281.3h139v64.5h-139V281.3Z" class="g4"/>
<text x="988" y="308" class="s6">Service </text>
<text x="1005" y="333" class="s6">API</text>
<path d="M772.8,333.8H812c3.5,0,6.6,0,9.4,.7c4.6,1.2,8.3,4.9,9.5,9.5c.7,2.8,.7,5.9,.7,9.4c0,3.6,0,6.7,-.7,9.5c-1.2,4.6,-4.9,8.2,-9.5,9.5c-2.8,.7,-5.9,.7,-9.4,.7H772.8c-3.6,0,-6.7,0,-9.5,-.7c-4.6,-1.3,-8.2,-4.9,-9.5,-9.5c-.7,-2.8,-.7,-5.9,-.7,-9.5c0,-3.5,0,-6.6,.7,-9.4c1.3,-4.6,4.9,-8.3,9.5,-9.5c2.8,-.7,5.9,-.7,9.5,-.7Z" class="g0"/>
<path d="M772.8,333.8H812c3.5,0,6.6,0,9.4,.7c4.6,1.2,8.3,4.9,9.5,9.5c.7,2.8,.7,5.9,.7,9.4c0,3.6,0,6.7,-.7,9.5c-1.2,4.6,-4.9,8.2,-9.5,9.5c-2.8,.7,-5.9,.7,-9.4,.7H772.8c-3.6,0,-6.7,0,-9.5,-.7c-4.6,-1.3,-8.2,-4.9,-9.5,-9.5c-.7,-2.8,-.7,-5.9,-.7,-9.5c0,-3.5,0,-6.6,.7,-9.4c1.3,-4.6,4.9,-8.3,9.5,-9.5c2.8,-.7,5.9,-.7,9.5,-.7Z" class="g7"/>
<text x="771" y="349" class="s8">stage: dev</text>
<text x="766" y="360" class="s8">tier: frontend</text>
<path d="M959.9,332.3h39.2c3.6,0,6.6,0,9.4,.7c4.7,1.3,8.3,4.9,9.6,9.5c.7,2.8,.7,5.9,.7,9.5c0,3.5,0,6.6,-.7,9.4c-1.3,4.6,-4.9,8.3,-9.6,9.5c-2.8,.7,-5.8,.7,-9.4,.7H959.9c-3.6,0,-6.7,0,-9.5,-.7c-4.6,-1.2,-8.2,-4.9,-9.5,-9.5c-.7,-2.8,-.7,-5.9,-.7,-9.4c0,-3.6,0,-6.7,.7,-9.5c1.3,-4.6,4.9,-8.2,9.5,-9.5c2.8,-.7,5.9,-.7,9.5,-.7Z" class="g0"/>
<path d="M959.9,332.3h39.2c3.6,0,6.6,0,9.4,.7c4.7,1.3,8.3,4.9,9.6,9.5c.7,2.8,.7,5.9,.7,9.5c0,3.5,0,6.6,-.7,9.4c-1.3,4.6,-4.9,8.3,-9.6,9.5c-2.8,.7,-5.8,.7,-9.4,.7H959.9c-3.6,0,-6.7,0,-9.5,-.7c-4.6,-1.2,-8.2,-4.9,-9.5,-9.5c-.7,-2.8,-.7,-5.9,-.7,-9.4c0,-3.6,0,-6.7,.7,-9.5c1.3,-4.6,4.9,-8.2,9.5,-9.5c2.8,-.7,5.9,-.7,9.5,-.7Z" class="g7"/>
<text x="957" y="348" class="s8">stage: dev</text>
<text x="953" y="359" class="s8">tier: backend</text>
<text x="805" y="183" class="sd">dev.hostname/app</text>
<text x="976" y="183" class="sd">dev.hostname/api</text>
<text x="774" y="47" class="se">:80 </text>
<text x="774" y="65" class="se">:433</text>
<text x="245" y="235" class="se">:80</text>
<text x="417" y="236" class="se">:9000</text>
<text x="858" y="238" class="se">:80</text>
<text x="1029" y="238" class="se">:9000</text>
<text x="520" y="424" class="se">:17017</text>
<text x="349" y="424" class="se">:9000</text>
<text x="198" y="424" class="se">:80</text>
<text x="1133" y="424" class="se">:17017</text>
<text x="962" y="424" class="se">:9000</text>
<text x="812" y="424" class="se">:80</text>

</g>

<!-- Any embedded fonts defined here -->
<style type="text/css" ><![CDATA[

@font-face {
	font-family: Helvetica_a;
	src: url("fonts/Helvetica_a.woff") format("woff");
}

@font-face {
	font-family: Metropolis-Light_b;
	src: url("fonts/Metropolis-Light_b.woff") format("woff");
}

@font-face {
	font-family: Metropolis-Regular_9;
	src: url("fonts/Metropolis-Regular_9.woff") format("woff");
}

@font-face {
	font-family: Metropolis-SemiBold_8;
	src: url("fonts/Metropolis-SemiBold_8.woff") format("woff");
}

]]></style>

</svg>
